<svg width="35" height="39" viewBox="0 0 35 39" fill="none" xmlns="http://www.w3.org/2000/svg">
<g clip-path="url(#clip0_2_14)">
<path fill-rule="evenodd" clip-rule="evenodd" d="M17.0299 1.3842L32.8463 10.4228V28.4985L17.0299 37.5371L1.21274 28.4985V10.4228L17.0299 1.3842ZM17.0264 0L34.0535 9.73028V29.1881L17.0264 38.9186L-8.2016e-05 29.1881V9.73028L17.0264 0V0Z" fill="white"/>
<path fill-rule="evenodd" clip-rule="evenodd" d="M18.6078 6.40316L18.6096 18.3134L2.846 27.3175L2.85059 11.3571L16.1894 3.73525L15.1808 9.48235H13.2002L13.4311 7.58684L4.81538 12.4795V23.9427L16.6439 17.1903V3.47616L17.0286 3.25566L31.2068 11.3571V27.5526L30.822 27.7745L18.8504 20.9338L7.0056 27.6911L17.0286 33.4188L28.4088 26.9153L30.3735 28.0376L17.0286 35.6644L3.078 27.6959L4.94419 26.6285L17.2937 19.5792L18.88 18.6834L29.2435 24.6229V12.4795L18.6078 6.40316Z" fill="white"/>
</g>
<defs>
<clipPath id="clip0_2_14">
<rect width="34.0536" height="38.9187" fill="white"/>
</clipPath>
</defs>
</svg>
